HIERARCHY
ROOT Hips
{
	OFFSET 0.00000 0.00000 0.00000
	CHANNELS 6 Xposition Yposition Zposition Zrotation Yrotation Xrotation 
	JOINT LHipJoint
	{
		OFFSET 0 0 0
		CHANNELS 3 Zrotation Yrotation Xrotation
		JOINT LeftHip
		{
			OFFSET 1.39187 -1.60231 0.69152
			CHANNELS 3 Zrotation Yrotation Xrotation
			JOINT LeftKnee
			{
				OFFSET 2.43314 -6.68499 0.00000
				CHANNELS 3 Zrotation Yrotation Xrotation
				JOINT LeftAnkle
				{
					OFFSET 2.32059 -6.37578 0.00000
					CHANNELS 3 Zrotation Yrotation Xrotation
					JOINT LeftToe
					{
						OFFSET 0.23021 -0.63250 1.71305
						CHANNELS 3 Zrotation Yrotation Xrotation
						End Site
						{
							OFFSET 0.00000 -0.00000 0.91647
						}
					}
				}
			}
		}
	}
	JOINT RHipJoint
	{
		OFFSET 0 0 0
		CHANNELS 3 Zrotation Yrotation Xrotation
		JOINT RightHip
		{
			OFFSET -1.19407 -1.60231 0.69152
			CHANNELS 3 Zrotation Yrotation Xrotation
			JOINT RightKnee
			{
				OFFSET -2.44411 -6.71513 0.00000
				CHANNELS 3 Zrotation Yrotation Xrotation
				JOINT RightAnkle
				{
					OFFSET -2.31924 -6.37207 0.00000
					CHANNELS 3 Zrotation Yrotation Xrotation
					JOINT RightToe
					{
						OFFSET -0.19473 -0.53502 1.87724
						CHANNELS 3 Zrotation Yrotation Xrotation
						End Site
						{
							OFFSET -0.00000 -0.00000 0.98293
						}
					}
				}
			}
		}
	}
	JOINT lowerback
	{
		OFFSET 0 0 0
		CHANNELS 3 Zrotation Yrotation Xrotation
		JOINT Chest
		{
			OFFSET -0.01120 1.87307 0.09613
			CHANNELS 3 Zrotation Yrotation Xrotation
			JOINT Chest2
			{
				OFFSET 0.01099 1.87818 0.04834
				CHANNELS 3 Zrotation Yrotation Xrotation
				JOINT lowerneck
				{
					OFFSET 0 0 0
					CHANNELS 3 Zrotation Yrotation Xrotation
					JOINT Neck
					{
						OFFSET 0.01702 1.40324 -0.12579
						CHANNELS 3 Zrotation Yrotation Xrotation
						JOINT Head
						{
							OFFSET -0.04239 1.38587 -0.01614
							CHANNELS 3 Zrotation Yrotation Xrotation
							End Site
							{
								OFFSET -0.02510 1.47031 -0.00154
							}
						}
					}
				}
				JOINT LeftCollar
				{
					OFFSET 0 0 0
					CHANNELS 3 Zrotation Yrotation Xrotation
					JOINT LeftShoulder
					{
						OFFSET 2.95699 0.62343 0.11653
CHANNELS 3 Zrotation Xrotation Yrotation
						JOINT LeftElbow
						{
OFFSET 0 -4.683820 -0.000000
CHANNELS 3 Zrotation Xrotation Yrotation
							JOINT LeftWrist
							{
OFFSET 0 -2.981240 -0.000000
CHANNELS 3 Zrotation Xrotation Yrotation
								JOINT lhand
								{
									OFFSET 0 0 0
CHANNELS 3 Zrotation Xrotation Yrotation
									JOINT LFingers
									{
OFFSET 0 -0.707590 0.000000
CHANNELS 3 Zrotation Xrotation Yrotation
										End Site
										{
OFFSET 0 -0.570480 0.000000
										}
									}
								}
								JOINT LThumb
								{
OFFSET 0 0.000000 0.000000
CHANNELS 3 Zrotation Xrotation Yrotation
									End Site
									{
OFFSET 0 -0.579190 0.579190
									}
								}
							}
						}
					}
				}
				JOINT RightCollar
				{
					OFFSET 0 0 0
					CHANNELS 3 Zrotation Yrotation Xrotation
					JOINT RightShoulder
					{
						OFFSET -2.99027 0.88714 -0.02793
CHANNELS 3 Zrotation Xrotation Yrotation
						JOINT RightElbow
						{
OFFSET 0 -4.758760 -0.000000
CHANNELS 3 Zrotation Xrotation Yrotation
							JOINT RightWrist
							{
OFFSET 0 -2.932930 -0.000000
CHANNELS 3 Zrotation Xrotation Yrotation
								JOINT rhand
								{
									OFFSET 0 0 0
CHANNELS 3 Zrotation Xrotation Yrotation
									JOINT RFingers
									{
OFFSET 0 -0.831750 0.000000
CHANNELS 3 Zrotation Xrotation Yrotation
										End Site
										{
OFFSET 0 -0.670580 0.000000
										}
									}
								}
								JOINT RThumb
								{
OFFSET 0 0.000000 0.000000
CHANNELS 3 Zrotation Xrotation Yrotation
									End Site
									{
OFFSET 0 -0.680820 0.680820
									}
								}
							}
						}
					}
				}
			}
		}
	}
}
MOTION
Frames: 10
Frame Time: 0.008333333333333333
31.678951 16.050779 -1.037116 126.205057 -87.750862 -110.318544 0.000000 0.000000 0.000000 -27.897840 -9.184291 3.475009 1.599902 7.977605 22.646094 0.904778 -3.858529 -17.089780 0.008475 -0.591267 -1.624866 0.000000 0.000000 0.000000 10.727405 24.625547 -39.350144 -0.824841 -5.790332 16.178593 0.006395 -2.630269 -3.325506 -0.238393 3.136424 -8.659272 -6.339817 -1.282298 -12.254480 1.341495 -1.152108 -4.010587 4.818951 -0.630460 2.789847 -3.803819 0.443767 5.358707 5.317394 0.720618 -10.267081 2.214614 0.194029 -3.970505 0.000000 0.000000 0.000000 -4.181866 -13.613109 -18.743967 14.638813 -23.640412 3.079701 10.681355 30.531981 -19.833962 0.000000 0.000000 0.000000 -7.125000 0.000000 0.000000 -17.342755 49.330123 1.905330 0.000000 0.000000 0.000000 0.620455 4.842791 3.559761 -11.019504 -18.318108 -1.782139 -12.701619 19.684370 -8.913156 0.000000 0.000000 0.000000 7.125000 0.000000 0.000000 10.201251 20.907548 5.983054
31.352998 16.086327 -1.060179 115.801154 -88.190552 -99.405446 0.000000 0.000000 0.000000 -27.252675 -8.884365 3.575080 1.648970 8.092629 22.995977 0.658869 -5.069621 -14.447171 0.017192 -0.840327 -2.309588 0.000000 0.000000 0.000000 11.094088 24.418025 -40.074889 -1.019184 -6.420927 18.011320 0.025939 -3.304088 -2.967289 -0.305865 3.554353 -9.826351 -5.948193 -1.431018 -13.129586 1.349273 -1.370257 -4.292151 4.562736 -0.748315 2.990803 -3.704268 0.363967 5.373353 5.080137 0.582018 -9.697565 2.360928 0.155187 -4.210992 0.000000 0.000000 0.000000 -4.270682 -12.456386 -17.049786 14.036176 -22.785583 2.842622 9.206122 32.186712 -19.810432 0.000000 0.000000 0.000000 -7.125000 0.000000 0.000000 -18.703739 49.090726 1.948835 0.000000 0.000000 0.000000 0.957905 5.128340 1.466669 -10.633542 -17.724200 -1.662829 -12.915715 21.365565 -8.511205 0.000000 0.000000 0.000000 7.125000 0.000000 0.000000 10.065828 21.303682 5.809453
31.016612 16.124508 -1.089008 110.443668 -88.689949 -93.668173 0.000000 0.000000 0.000000 -26.299438 -8.070451 3.130748 1.805993 8.449547 24.088134 0.417434 -6.746517 -11.729466 0.024336 -1.007603 -2.769833 0.000000 0.000000 0.000000 11.970601 24.187482 -40.038550 -1.139112 -6.777967 19.059246 0.033965 -3.485038 -2.560386 -0.358181 3.844744 -10.640452 -5.657768 -1.531468 -14.076272 1.556181 -1.514748 -4.452354 4.581796 -0.834039 3.351360 -3.930044 0.401005 5.248634 5.197089 0.621756 -9.450980 2.435603 0.181640 -4.104332 0.000000 0.000000 0.000000 -4.561991 -11.338935 -15.215927 13.346920 -21.793433 2.580654 9.886875 34.074986 -18.874746 0.000000 0.000000 0.000000 -7.125000 0.000000 0.000000 -17.686909 48.294728 1.481569 0.000000 0.000000 0.000000 0.994738 5.152366 -1.517103 -10.100795 -16.897034 -1.504112 -12.624809 23.470668 -8.957205 0.000000 0.000000 0.000000 7.125000 0.000000 0.000000 10.254093 20.866353 6.024809
30.683455 16.153640 -1.114689 98.078694 -89.221234 -81.017518 0.000000 0.000000 0.000000 -25.195287 -6.940266 2.227288 2.060275 8.988327 25.760335 0.150131 -8.345812 -8.448203 0.020499 -0.909370 -2.499624 0.000000 0.000000 0.000000 13.241921 23.566694 -39.676376 -1.237692 -7.054214 19.876209 0.021122 -2.832921 -2.311871 -0.384369 3.981361 -11.024236 -5.089029 -1.586534 -14.680607 1.674444 -1.662629 -4.667848 4.350199 -0.913100 3.458347 -3.976021 0.414807 4.459195 5.161096 0.636253 -8.572113 2.406751 0.206851 -3.638842 0.000000 0.000000 0.000000 -4.598967 -9.917967 -13.576806 12.714181 -20.866333 2.350996 13.439153 36.190108 -16.790320 0.000000 0.000000 0.000000 -7.125000 0.000000 0.000000 -13.662440 46.746046 0.600149 0.000000 0.000000 0.000000 1.235788 5.346218 -4.171350 -9.545244 -16.024813 -1.347020 -12.747758 25.182995 -9.924864 0.000000 0.000000 0.000000 7.125000 0.000000 0.000000 10.127335 19.886221 6.174627
30.351645 16.196343 -1.138277 86.489291 -89.664802 -69.333748 0.000000 0.000000 0.000000 -24.097919 -5.643070 1.079608 2.364616 9.585841 27.646988 -0.140118 -9.793419 -4.040124 0.007709 0.420506 1.155759 0.000000 0.000000 0.000000 14.573187 22.872796 -38.915365 -1.337254 -7.321800 20.672456 -0.002062 -1.951956 -2.947603 -0.343857 3.768062 -10.425007 -4.706313 -1.550695 -14.972889 1.857784 -1.692695 -5.019768 4.320259 -0.925001 3.243137 -4.195268 0.445384 4.557986 5.240743 0.658175 -8.101811 2.466659 0.225726 -3.498530 0.000000 0.000000 0.000000 -4.894627 -8.005521 -11.541040 12.033193 -19.853645 2.114148 9.348550 36.994125 -20.321880 0.000000 0.000000 0.000000 -7.125000 0.000000 0.000000 -18.793968 49.598120 2.199988 0.000000 0.000000 0.000000 1.339622 5.684644 -7.312255 -9.000164 -15.160297 -1.200516 -12.964036 27.127480 -9.905203 0.000000 0.000000 0.000000 7.125000 0.000000 0.000000 9.974929 19.895328 6.076953
30.027351 16.239982 -1.160332 118.947936 -89.757124 -101.857648 0.000000 0.000000 0.000000 -23.431869 -4.035259 -0.127957 2.700358 10.191871 29.601728 -0.327072 -10.493415 0.952321 0.052023 1.464360 4.027626 0.000000 0.000000 0.000000 15.543606 22.089911 -38.081231 -1.447058 -7.603941 21.517713 -0.038267 -0.807593 -4.077807 -0.393471 4.025870 -11.149799 -4.578142 -1.502284 -15.224503 1.899583 -1.652105 -5.166787 4.296599 -0.906616 3.216006 -3.964640 0.437398 4.387998 4.796871 0.629056 -7.730887 2.265684 0.226550 -3.326622 0.000000 0.000000 0.000000 -5.087012 -6.568474 -8.802647 11.203247 -18.598517 1.840713 9.497897 39.428168 -20.897532 0.000000 0.000000 0.000000 -7.125000 0.000000 0.000000 -18.911985 50.167447 2.487311 0.000000 0.000000 0.000000 1.463887 5.707343 -10.640018 -8.491486 -14.346282 -1.070767 -13.256778 29.155203 -9.578321 0.000000 0.000000 0.000000 7.125000 0.000000 0.000000 9.778939 20.211247 5.883806
29.702894 16.280927 -1.184868 170.745446 -89.682793 -153.942876 0.000000 0.000000 0.000000 -22.764778 -2.495867 -1.295507 3.126260 10.892701 31.923254 -0.299835 -10.012731 5.973365 0.035568 1.214322 3.338705 0.000000 0.000000 0.000000 16.709630 21.022710 -37.022896 -1.554336 -7.868097 22.314445 -0.060744 0.231825 -4.557030 -0.680178 5.270074 -14.681190 -4.465925 -1.368951 -15.368016 1.916632 -1.491970 -5.197242 4.278844 -0.829102 3.241602 -3.938565 0.470464 4.923846 4.733505 0.663876 -8.100738 2.248087 0.239020 -3.559197 0.000000 0.000000 0.000000 -5.297797 -5.170024 -5.918068 10.516304 -17.542370 1.627717 9.101088 41.549373 -21.742270 0.000000 0.000000 0.000000 -7.125000 0.000000 0.000000 -19.679973 50.904472 2.962263 0.000000 0.000000 0.000000 1.639459 5.976280 -12.177214 -8.335360 -14.095044 -1.032250 -13.599940 28.900757 -8.168196 0.000000 0.000000 0.000000 7.125000 0.000000 0.000000 9.589642 21.622953 5.456182
29.391710 16.321353 -1.206372 180.571454 -89.486539 -163.753033 0.000000 0.000000 0.000000 -22.249232 -1.383417 -3.076776 3.656846 11.688765 34.640209 -0.078754 -9.006575 11.257605 0.039743 1.285713 3.535367 0.000000 0.000000 0.000000 17.682803 19.754190 -36.401774 -1.655061 -8.107291 23.040376 -0.114629 1.229791 -6.080304 -0.540818 4.711811 -13.088262 -4.344273 -1.133366 -15.572455 1.784340 -1.200089 -5.376485 4.121296 -0.684476 3.124933 -3.995080 0.310621 4.993099 4.839670 0.447870 -7.839674 2.300834 0.130990 -3.472518 0.000000 0.000000 0.000000 -5.423260 -3.747338 -2.565995 9.848040 -16.501437 1.431542 8.753429 44.199663 -22.081809 0.000000 0.000000 0.000000 -7.125000 0.000000 0.000000 -20.172501 51.168534 3.175208 0.000000 0.000000 0.000000 1.997563 6.552977 -12.402370 -8.495784 -14.353384 -1.071671 -13.392521 26.674686 -6.677695 0.000000 0.000000 0.000000 7.125000 0.000000 0.000000 9.812085 23.139308 5.241481
29.087262 16.356908 -1.227087 197.154718 -89.245824 -180.119154 0.000000 0.000000 0.000000 -21.646590 -0.919629 -5.245574 4.355864 12.614342 37.949357 0.329256 -7.547712 16.059052 0.085335 1.879929 5.173989 0.000000 0.000000 0.000000 18.604551 18.829401 -35.774927 -1.715694 -8.246857 23.466438 -0.172301 2.235387 -7.370655 -0.548651 4.744811 -13.182113 -3.970178 -0.889677 -15.967467 1.695797 -0.933120 -5.528042 3.861060 -0.558159 3.142674 -4.133295 0.213076 4.577276 4.907901 0.314596 -7.378884 2.343391 0.072902 -3.228408 0.000000 0.000000 0.000000 -5.555224 -2.676590 2.411704 9.097194 -15.314447 1.226277 8.452961 48.060953 -21.975124 0.000000 0.000000 0.000000 -7.125000 0.000000 0.000000 -20.403299 51.020130 3.137510 0.000000 0.000000 0.000000 2.310837 6.907273 -12.372091 -8.708882 -14.695108 -1.125294 -12.933376 24.111802 -5.190414 0.000000 0.000000 0.000000 7.125000 0.000000 0.000000 10.242052 24.653946 5.113249
28.794573 16.397068 -1.249227 223.709199 -89.179804 -206.496401 0.000000 0.000000 0.000000 -20.838002 -0.753265 -7.699631 5.182622 13.581956 41.596733 0.815889 -6.379137 20.508645 0.024239 0.926482 2.547150 0.000000 0.000000 0.000000 19.624690 17.912287 -34.987897 -1.736153 -8.293381 23.608632 -0.225008 2.881059 -8.425926 -0.634324 5.095762 -14.181817 -3.569310 -0.709101 -15.985542 1.689114 -0.772743 -5.769935 3.655778 -0.477935 2.878442 -4.165231 0.067431 4.059872 4.995437 0.123375 -6.612449 2.368062 -0.014993 -2.859160 0.000000 0.000000 0.000000 -5.710895 -1.645143 7.633981 8.460030 -14.295369 1.063309 7.887084 51.752927 -22.286657 0.000000 0.000000 0.000000 -7.125000 0.000000 0.000000 -21.091908 51.220233 3.358829 0.000000 0.000000 0.000000 2.581588 7.655805 -10.987099 -9.156569 -15.409465 -1.241517 -12.746903 20.404985 -4.182222 0.000000 0.000000 0.000000 7.125000 0.000000 0.000000 10.453055 25.674185 4.970442
